<?xml version="1.0"?>
<svg width="22" height="22" xmlns="http://www.w3.org/2000/svg" xmlns:svg="http://www.w3.org/2000/svg">
 <g class="layer">
  <title>Layer 1</title>
  <path d="m10.08,1.24c0.34,-0.82 1.5,-0.82 1.84,0l2.05,4.96c0.28,0.68 0.91,1.15 1.65,1.23l5.18,0.52c0.85,0.08 1.21,1.14 0.58,1.72l-4.01,3.72c-0.51,0.48 -0.74,1.19 -0.59,1.88l1.15,5.44c0.18,0.86 -0.76,1.52 -1.5,1.05l-4.38,-2.71c-0.64,-0.4 -1.46,-0.4 -2.1,0l-4.37,2.71c-0.75,0.47 -1.69,-0.19 -1.51,-1.05l1.15,-5.44c0.15,-0.69 -0.08,-1.4 -0.59,-1.88l-4.01,-3.72c-0.63,-0.58 -0.27,-1.64 0.58,-1.72l5.18,-0.52c0.74,-0.08 1.37,-0.55 1.65,-1.23l2.05,-4.96z" fill="#efcc20" id="svg_1"/>
 </g>
</svg>